# xmcd CD database file
#
# Track frame offsets:
#	182
#	14592
#	25720
#	39560
#	51470
#	64815
#	77662
#	96225
#	107000
#	123017
#	137622
#	150750
#	164152
#	175417
#
# Disc length: 2513 seconds
#
# Revision: 0
# Processed by: cddbd v1.4PL0 Copyright (c) Steve Scherf et al.
# Submitted via: CDex 1.50beta9
#
DISCID=b209cf0e
DTITLE=Declan Nerney  - £ Way Love Affair 
DYEAR=1990
DGENRE=Country
TTITLE0=THree Way Love Affair
TTITLE1=If I Could Only Start Over
TTITLE2=Someday You'll Call My Name
TTITLE3=Sweet Rathcoole 
TTITLE4=Gallant John Jo
TTITLE5=Winter Winds
TTITLE6=Nobody's Child
TTITLE7=I'm Just Lucky I Guess
TTITLE8=Sprig Of Irish Heather
TTITLE9=Marquee In Drumlish
TTITLE10=Morningtown Ride
TTITLE11=Dear Old Galway Town
TTITLE12=Hi Lili Hi Low
TTITLE13=Beautiful Meath
EXTD=YEAR: 1990
EXTT0=
EXTT1=
EXTT2=
EXTT3=
EXTT4=
EXTT5=
EXTT6=
EXTT7=
EXTT8=
EXTT9=
EXTT10=
EXTT11=
EXTT12=
EXTT13=
PLAYORDER=
